<svg xmlns="http://www.w3.org/2000/svg" viewBox="0 0 512 512" width="512" height="512">
  <defs>
    <linearGradient id="arcGrad" x1="0%" y1="0%" x2="100%" y2="100%">
      <stop offset="0%" stop-color="#ff7043"/>
      <stop offset="100%" stop-color="#e53935"/>
    </linearGradient>
    <linearGradient id="bgGrad" x1="0%" y1="0%" x2="100%" y2="100%">
      <stop offset="0%" stop-color="#1a1f2e"/>
      <stop offset="100%" stop-color="#0d1117"/>
    </linearGradient>
    <filter id="glow">
      <feGaussianBlur stdDeviation="4" result="blur"/>
      <feMerge><feMergeNode in="blur"/><feMergeNode in="SourceGraphic"/></feMerge>
    </filter>
  </defs>
  <rect width="512" height="512" rx="100" fill="url(#bgGrad)"/>
  <rect x="3" y="3" width="506" height="506" rx="98" fill="none" stroke="url(#arcGrad)" stroke-width="6" opacity="0.75"/>
  <circle cx="256" cy="248" r="178" fill="none" stroke="#21262d" stroke-width="28"/>
  <circle cx="256" cy="248" r="178"
    fill="none"
    stroke="url(#arcGrad)"
    stroke-width="28"
    stroke-linecap="round"
    stroke-dasharray="839 280"
    stroke-dashoffset="0"
    transform="rotate(-90 256 248)"
    filter="url(#glow)"/>
  <circle cx="256" cy="248" r="138" fill="#161b22"/>
  <line x1="256" y1="92"  x2="256" y2="112" stroke="#30363d" stroke-width="8" stroke-linecap="round"/>
  <line x1="412" y1="248" x2="392" y2="248" stroke="#30363d" stroke-width="8" stroke-linecap="round"/>
  <line x1="256" y1="404" x2="256" y2="384" stroke="#30363d" stroke-width="8" stroke-linecap="round"/>
  <line x1="100" y1="248" x2="120" y2="248" stroke="#30363d" stroke-width="8" stroke-linecap="round"/>
  <line x1="256" y1="248" x2="256" y2="148"
    stroke="#e6edf3" stroke-width="13" stroke-linecap="round"/>
  <line x1="256" y1="248" x2="330" y2="248"
    stroke="#e6edf3" stroke-width="10" stroke-linecap="round"/>
  <circle cx="256" cy="248" r="11" fill="#ff7043"/>
  <path d="M186 348 L230 394 L336 298"
    fill="none"
    stroke="#3fb950"
    stroke-width="24"
    stroke-linecap="round"
    stroke-linejoin="round"
    filter="url(#glow)"/>
</svg>
